<svg xmlns="http://www.w3.org/2000/svg" viewBox="0 0 879.94 879.94"><circle cx="439.97" cy="439.97" r="439.97" style="fill:#212121"/><path d="M602.8,706.44q-43.2,0-66.48-23.76T513,614.28v-107H470.8V443.4H513V356h78.24V443.4H657v63.84H591.28v97.44q0,16.8,7.2,25.68t22.08,8.88a70.31,70.31,0,0,0,16.56-2.16,90,90,0,0,0,17-6l12,59.52a143.26,143.26,0,0,1-28.33,11.28A126.41,126.41,0,0,1,602.8,706.44Z" transform="translate(-200.03 -72.03)" style="fill:#2cf1aa"/><path d="M750.16,701.16a46.17,46.17,0,0,1-24.24-6.48,47.6,47.6,0,0,1-17-17.28,48.36,48.36,0,0,1,0-47.52,47.6,47.6,0,0,1,17-17.28,48.58,48.58,0,0,1,48.48,0,47.75,47.75,0,0,1,17,17.28,48.36,48.36,0,0,1,0,47.52,47.75,47.75,0,0,1-17,17.28A46.22,46.22,0,0,1,750.16,701.16Z" transform="translate(-200.03 -72.03)" style="fill:#2cf1aa"/></svg>