<svg xmlns="http://www.w3.org/2000/svg" viewBox="0 0 742.19 742.19"><circle cx="371.09" cy="371.09" r="371.09" style="fill:#212121"/><path d="M462,679.4V342.8h73.35V535.4l79.2-95.85h83.25L606,545.75,708.62,679.4H618.17L535.38,561.5V679.4Z" transform="translate(-268.91 -140.91)" style="fill:#2cf1aa"/><path d="M773.42,681.2a43.21,43.21,0,0,1-22.72-6.08,44.68,44.68,0,0,1-16-16.19,45.35,45.35,0,0,1,0-44.56,44.68,44.68,0,0,1,16-16.19,45.51,45.51,0,0,1,45.45,0,44.65,44.65,0,0,1,16,16.19,45.35,45.35,0,0,1,0,44.56,44.65,44.65,0,0,1-16,16.19A43.24,43.24,0,0,1,773.42,681.2Z" transform="translate(-268.91 -140.91)" style="fill:#2cf1aa"/></svg>