<svg width="362" height="512" viewBox="0 0 362 512"
    xmlns="http://www.w3.org/2000/svg">
    <path fill="#000000" stroke="none" d="M 181 512 C 11.295767 512 11.295767 512 7.989831 509.75 C 6.171566 508.512512 3.742519 506.229553 2.591948 504.676788 C 0.5 501.853577 0.5 501.853577 0.154439 342.676788 C -0.080127 234.627869 0.157927 178.681976 0.895573 168.5 C 1.523246 159.836029 3.07845 148.684204 4.577387 142.098969 C 6.004703 135.82843 8.747921 126.153412 10.673428 120.598969 C 12.598933 115.044556 17.073559 104.875 20.617037 98 C 24.160517 91.125 30.08379 81.264374 33.779865 76.087494 C 37.475937 70.910645 44.744484 62.210052 49.93219 56.752869 C 55.119896 51.295685 62.544895 44.246033 66.43219 41.086975 C 70.319489 37.927917 76.875 33.084106 81 30.322968 C 85.125 27.561798 91.875 23.486542 96 21.266815 C 100.125 19.047089 108.087189 15.377686 113.693748 13.112549 C 119.300308 10.847443 128.975311 7.686188 135.193756 6.087555 C 141.412186 4.488892 151.686157 2.405029 158.02478 1.456696 C 166.980408 0.116852 173.333755 -0.145691 186.52478 0.279053 C 199.417679 0.694183 206.506088 1.459961 216 3.463379 C 222.875 4.914124 233.067596 7.625854 238.650223 9.48941 C 244.232849 11.352966 253.457855 15.110291 259.150238 17.83902 C 264.84259 20.567749 273.774994 25.60965 279 29.043274 C 284.225006 32.476898 291.680511 37.883728 295.56781 41.058472 C 299.455109 44.233215 306.880096 51.295685 312.06781 56.752869 C 317.255524 62.210052 324.524048 70.910645 328.220123 76.087494 C 331.916199 81.264374 337.874756 91.179413 341.461334 98.120911 C 345.047913 105.062439 349.761658 116.087433 351.93631 122.620911 C 354.110931 129.154419 356.813629 139 357.942291 144.5 C 359.070953 150 360.488251 160.799988 361.091858 168.5 C 361.846344 178.125092 362.081573 232.397919 361.844635 342.176788 C 361.5 501.853577 361.5 501.853577 359.408051 504.676788 C 358.257477 506.229553 355.82843 508.512512 354.010162 509.75 C 350.704224 512 350.704224 512 181 512 Z M 332 482 L 332 437 L 181 437 L 30 437 L 30 459.5 L 30 482 L 181 482 L 332 482 Z M 67.922356 407 C 68.487106 342.612854 68.592018 341.02005 70.56179 338.383423 C 71.69577 336.865479 73.865273 334.69577 75.382904 333.561768 C 77.996559 331.608826 79.669472 331.483826 107.071114 331.193665 L 136 330.88736 L 136 299.344788 C 136 272.313843 136.232178 267.312988 137.623291 264.381439 C 138.516098 262.5 140.653595 259.95697 142.373291 258.730286 C 145.41124 256.563293 146.330368 256.491699 174.75 256.207336 L 204 255.914673 L 204.003738 223.707336 C 204.007263 193.333313 204.12059 191.314484 205.994598 188.240845 C 207.087509 186.448334 209.448334 184.087524 211.24086 182.994598 C 214.394287 181.07193 216.38942 181.007355 272.75 181.003723 L 331 181 L 330.995972 173.25 C 330.993774 168.987488 330.332886 161.436584 329.527374 156.470184 C 328.721832 151.503784 326.957184 143.628784 325.605927 138.970184 C 324.254639 134.311584 321.535309 126.674988 319.562897 122 C 317.590515 117.325012 313.891113 109.899994 311.34201 105.5 C 308.792877 101.100006 304.185608 94.132324 301.103638 90.016266 C 298.021637 85.900208 291.899994 78.889008 287.5 74.435822 C 283.100006 69.982666 275.53421 63.409454 270.687164 59.828705 C 265.840088 56.247955 258.210815 51.366241 253.733185 48.980469 C 249.255554 46.594696 241.971344 43.113342 237.546021 41.244141 C 233.120712 39.374939 224.481186 36.549438 218.347076 34.96524 C 212.212967 33.381073 201.294464 31.532349 194.083725 30.856995 C 183.859299 29.899384 178.279617 29.890259 168.736649 30.815582 C 162.006485 31.46817 153.350006 32.674591 149.5 33.496552 C 145.649994 34.318481 138.681625 36.204651 134.014725 37.688019 C 129.347824 39.171387 119.897827 43.210907 113.014725 46.664703 C 106.13163 50.1185 96.449997 55.978119 91.5 59.686096 C 86.550003 63.394073 78.900002 70.051392 74.5 74.480194 C 70.099998 78.908966 63.978371 85.900208 60.896378 90.016266 C 57.814384 94.132324 53.211697 101.100006 50.668186 105.5 C 48.124672 109.899994 44.488819 117.100006 42.588505 121.5 C 40.688194 125.899994 37.960278 133.549988 36.52647 138.5 C 35.092659 143.450012 33.195412 151.325012 32.310364 156 C 30.903015 163.433899 30.650671 179.537262 30.298401 284.392792 C 30.076868 350.333832 30.129976 404.896332 30.416422 405.642792 C 30.829029 406.718018 34.779179 407 49.429794 407 L 67.922356 407 Z M 331.5 406.5 L 331.5 361.5 L 214.75 361.24585 L 98 360.991699 L 98 384 L 98 407.008301 L 214.75 406.75415 L 331.5 406.5 Z M 332 331 L 332 286 L 249 286 L 166 286 L 166 308.5 L 166 331 L 249 331 L 332 331 Z M 332 256 L 332 211 L 283 211 L 234 211 L 234 233.5 L 234 256 L 283 256 L 332 256 Z"/>
    <path fill="#ff5b1d" stroke="none" d="M 331.300781 180.90979 C 217.378403 181.48056 213.323502 181.619812 210.819489 183.319489 C 209.3452 184.32019 207.320206 186.345184 206.319489 187.819489 C 204.668747 190.251404 204.472168 193.526306 204.199905 223.13147 L 203.899811 255.762939 L 175.199905 256.188965 C 151.387009 256.542419 145.989166 256.887421 143.5 258.215088 C 141.850006 259.095154 139.600006 261.319275 138.5 263.157593 C 136.630219 266.282379 136.479691 268.59259 136.187958 298.638916 L 135.875931 330.777832 L 107.687965 331.147827 C 81.562523 331.490723 79.24649 331.666077 76.035385 333.544312 C 74.129845 334.658875 71.714157 337.037476 70.667183 338.830139 C 68.935204 341.795715 68.715836 345.01532 68.23381 374.544769 L 67.704025 407 L 50.602013 406.969604 C 40.856007 406.952271 32.74728 406.500763 31.75 405.919891 C 30.105246 404.961914 30.005003 400.077362 30.083195 324.700317 C 30.128952 280.590149 30.518091 224.700012 30.94795 200.5 C 31.729511 156.5 31.729511 156.5 34.795975 144.949188 C 36.482533 138.596222 39.276279 129.821228 41.004307 125.449188 C 42.732334 121.077118 46.11964 113.864929 48.531651 109.422089 C 50.943665 104.979248 55.523277 97.709015 58.708565 93.266022 C 61.893856 88.823029 66.789001 82.783112 69.586662 79.843933 C 72.384331 76.904785 77.756798 71.623413 81.52549 68.107574 C 85.294174 64.591766 92.455177 59.035156 97.438828 55.759552 C 102.42247 52.483948 110.775002 47.748749 116 45.236877 C 121.224998 42.725006 129.165619 39.421997 133.645828 37.896881 C 138.126038 36.371765 145.101044 34.44635 149.145828 33.618195 C 153.190628 32.790009 161.449997 31.58194 167.5 30.933563 C 173.751511 30.26358 182.600967 30.034424 188 30.402679 C 193.225006 30.759094 201.550003 31.731476 206.5 32.563568 C 211.449997 33.39566 220 35.454926 225.5 37.139679 C 231 38.824463 240.014343 42.329651 245.53186 44.928986 C 251.049377 47.52832 259.599396 52.384979 264.53186 55.721558 C 269.464325 59.058136 276.546844 64.442261 280.270752 67.68634 C 283.994659 70.930389 289.999695 76.940582 293.615265 81.042297 C 297.230835 85.144043 302.869476 92.501373 306.145599 97.391937 C 309.421722 102.282471 314.05304 110.382477 316.437408 115.391937 C 318.821808 120.401367 321.980255 128.041687 323.456207 132.370422 C 324.932159 136.699158 327.012787 144.124176 328.079834 148.870422 C 329.146881 153.616699 330.308105 162.767212 330.660339 169.204895 L 331.300781 180.90979 Z"/>
</svg>
