<svg xmlns="http://www.w3.org/2000/svg" width="362" height="512" viewBox="0 0 362 512" fill="#000000">
    <path stroke="none" d="M 181 512 C 11.295769 512 11.295769 512 7.98983 509.75 C 6.17157 508.512512 3.742516 506.229553 2.591949 504.676819 C 0.5 501.853638 0.5 501.853638 0.152916 343.176819 C -0.081383 236.060974 0.157318 179.524841 0.887497 169.189148 C 1.520157 160.233917 3.046555 149.074554 4.564629 142.305969 C 5.992126 135.941193 8.738297 126.181061 10.667221 120.616821 C 12.596138 115.052582 17.073555 104.875 20.617035 98 C 24.160515 91.125 30.083786 81.264374 33.779861 76.087494 C 37.475937 70.910645 44.744484 62.210052 49.93219 56.752869 C 55.119888 51.295685 62.544891 44.246033 66.43219 41.086975 C 70.319489 37.927917 76.875 33.084106 81 30.322968 C 85.125 27.561798 91.875 23.486542 96 21.266815 C 100.125 19.047089 108.087189 15.377686 113.693756 13.112549 C 119.300308 10.847443 128.975311 7.686188 135.193756 6.087555 C 141.412186 4.488892 151.686157 2.405029 158.02478 1.456696 C 166.980408 0.116852 173.333755 -0.145691 186.52478 0.279053 C 199.417664 0.694183 206.506104 1.459961 216 3.463379 C 222.875 4.914124 233.067596 7.625854 238.650238 9.48941 C 244.232849 11.352966 253.457855 15.110291 259.150238 17.83902 C 264.84259 20.567749 273.774994 25.60965 279 29.043274 C 284.225006 32.476898 291.680511 37.883728 295.56781 41.058472 C 299.455109 44.233215 306.880096 51.295685 312.06781 56.752869 C 317.255524 62.210052 324.524048 70.910645 328.220123 76.087494 C 331.916199 81.264374 337.874756 91.179413 341.461334 98.120911 C 345.047913 105.062439 349.761658 116.087433 351.93631 122.620911 C 354.110931 129.154419 356.817505 139 357.950867 144.5 C 359.084259 150 360.502655 161.25 361.102875 169.5 C 361.846497 179.721436 362.083588 235.049805 361.847076 343.176819 C 361.5 501.853638 361.5 501.853638 359.408051 504.676819 C 358.257477 506.229553 355.82843 508.512512 354.010162 509.75 C 350.704224 512 350.704224 512 181 512 Z M 332 482 L 332 437 L 186.647888 437 C 41.295769 437 41.295769 437 37.98983 439.25 C 36.17157 440.487488 33.742516 442.769226 32.591949 444.320496 C 30.692871 446.880951 30.469337 448.747955 30.167397 464.570496 L 29.834793 482 L 180.917389 482 L 332 482 Z M 331.5 406.5 L 331.5 361.5 L 221 361.5 C 128.663391 361.5 109.95578 361.729553 107.189117 362.896545 C 105.368134 363.664612 102.668137 365.878326 101.189117 367.815857 C 98.537582 371.289398 98.495377 371.58786 98.168961 389.173462 L 97.837921 407.008301 L 214.668945 406.75415 L 331.5 406.5 Z M 332 331 L 332 286 L 255.315735 286 C 180.674118 286 178.521393 286.053284 174.499817 288.000092 C 171.866638 289.27478 169.576065 291.409576 168.184097 293.88623 C 166.18222 297.44812 166 299.158386 166 314.386169 L 166 331 L 249 331 L 332 331 Z M 332 256 L 332 211 L 288.25 211.003723 C 246.358154 211.007324 244.361572 211.091888 241.240845 212.994598 C 239.448334 214.087524 237.087524 216.448334 235.994598 218.240845 C 234.214966 221.159668 234.00708 223.3013 234.003723 238.75 L 234 256 L 283 256 L 332 256 Z"/>
</svg>
