<svg width="300" height="300" viewBox="0 0 300 300"
    xmlns="http://www.w3.org/2000/svg"
    xmlns:xlink="http://www.w3.org/1999/xlink">
    <g id="wrench-com">
        <g id="Group">
            <path id="Path" fill="white" stroke="none" d="M 275.169586 85.250412 C 274.976288 83.007156 273.49881 81.080078 271.387939 80.311676 C 269.271759 79.538528 266.902985 80.064819 265.311005 81.65416 L 232.738876 114.224197 L 196.629837 102.790985 L 185.196625 66.68248 L 217.769287 34.109833 C 219.363358 32.517303 219.883347 30.14798 219.115463 28.035522 C 218.339706 25.918854 216.417358 24.444519 214.169373 24.250183 C 194.387619 22.545807 175.005066 29.608582 160.991394 43.624359 C 141.798447 62.818878 136.71579 90.848312 145.716125 114.739975 C 144.732376 115.568787 143.761749 116.446976 142.80426 117.393967 L 34.076912 219.990295 C 34.03857 220.027588 34.000755 220.068558 33.959263 220.105316 C 21.172537 232.892578 21.172537 253.698502 33.959263 266.487854 C 46.748089 279.274048 67.401711 279.118591 80.186333 266.331329 C 80.241486 266.279877 80.291908 266.228394 80.342323 266.171143 L 182.043671 156.597137 C 182.970688 155.665909 183.831558 154.691605 184.643036 153.691559 C 208.541 162.708191 236.588287 157.637619 255.79805 138.430481 C 269.808563 124.413651 276.876038 105.02951 275.169586 85.250412 Z M 63.801785 252.674316 C 59.089947 257.385101 51.458878 257.381958 46.747562 252.674316 C 42.037827 247.967728 42.037827 240.330353 46.747562 235.622192 C 51.458878 230.914551 59.089947 230.914551 63.801785 235.622192 C 68.51152 240.330353 68.51152 247.967728 63.801785 252.674316 Z"/>
        </g>

    </g>
</svg>
