<?xml version="1.0" encoding="utf-8"?>
<!-- Generator: Adobe Illustrator 25.0.0, SVG Export Plug-In . SVG Version: 6.00 Build 0)  -->
<svg version="1.1" id="Layer_1" xmlns="http://www.w3.org/2000/svg" xmlns:xlink="http://www.w3.org/1999/xlink" x="0px" y="0px"
	 viewBox="0 0 458.78 436.16" style="enable-background:new 0 0 458.78 436.16;" xml:space="preserve">
<style type="text/css">
	.st0{fill:#FFFFFF;}
</style>
<path class="st0" d="M25.39,409.96V24.13h84.08V244.9l90.78-109.87h95.42L190.45,256.76l117.6,153.2H204.37l-94.91-135.18v135.18
	H25.39z"/>
<path class="st0" d="M382.35,412.02c-9.16,0.13-18.17-2.28-26.05-6.96c-7.6-4.51-13.91-10.9-18.31-18.57
	c-8.94-15.85-8.94-35.22,0-51.07c4.4-7.67,10.71-14.06,18.31-18.57c16.12-9.28,35.97-9.28,52.1,0c7.6,4.52,13.9,10.94,18.28,18.61
	c8.94,15.85,8.94,35.22,0,51.07c-4.4,7.67-10.71,14.06-18.31,18.57C400.5,409.76,391.5,412.16,382.35,412.02z"/>
</svg>
