<svg xmlns="http://www.w3.org/2000/svg" viewBox="-17.645 -17.645 525.6 560.89" fill="white"><path d="M591,735.49q-64.8,0-99.72-35.64t-34.92-102.6V436.69H393V340.93h63.36v-131H573.71v131h98.64v95.76H573.71V582.85q0,25.2,10.8,38.52t33.12,13.32a105.53,105.53,0,0,0,24.84-3.24,134.55,134.55,0,0,0,25.56-9l18,89.28a214.38,214.38,0,0,1-42.48,16.92Q619.79,735.48,591,735.49Z" transform="translate(-392.99 -209.89)"/><path d="M812,727.57a69.3,69.3,0,0,1-36.36-9.72,71.43,71.43,0,0,1-25.56-25.92,72.53,72.53,0,0,1,0-71.28,71.43,71.43,0,0,1,25.56-25.92,72.87,72.87,0,0,1,72.72,0,71.51,71.51,0,0,1,25.56,25.92,72.53,72.53,0,0,1,0,71.28,71.51,71.51,0,0,1-25.56,25.92A69.32,69.32,0,0,1,812,727.57Z" transform="translate(-392.99 -209.89)"/></svg>