<svg width="300" height="300" viewBox="0 0 300 300"
    xmlns="http://www.w3.org/2000/svg"
    xmlns:xlink="http://www.w3.org/1999/xlink">
    <g id="block-10016">
        <g id="Group">
            <path id="Path" fill="white" stroke="white" stroke-width="2" stroke-linecap="round" stroke-linejoin="round" d="M 140.085159 168.204514 C 140.076767 168.168106 140.071167 168.131699 140.062759 168.095291 C 139.981537 167.795593 139.863907 167.509918 139.721069 167.238251 C 139.698654 167.19342 139.676239 167.151413 139.651047 167.106598 C 139.499802 166.843323 139.320541 166.599655 139.116089 166.375595 C 139.082474 166.339188 139.046066 166.30278 139.009659 166.266373 C 138.793991 166.04509 138.555939 165.846237 138.289856 165.675385 C 138.275848 165.666992 138.267441 165.652985 138.253433 165.644592 C 138.228241 165.630585 138.200226 165.624985 138.177811 165.60817 C 138.074188 165.546555 137.973358 165.482132 137.864136 165.428925 L 83.909523 139.210632 C 82.758392 138.650467 81.414001 138.650467 80.262878 139.210632 L 26.311069 165.431732 C 26.201839 165.48494 26.101009 165.549362 26.000181 165.610977 C 25.974974 165.624985 25.946966 165.630585 25.921759 165.647385 C 25.907755 165.655792 25.899353 165.669785 25.885349 165.678207 C 25.622074 165.846237 25.384007 166.047913 25.168344 166.266373 C 25.131933 166.30278 25.095524 166.339188 25.061913 166.378403 C 24.857454 166.602463 24.678204 166.84613 24.529762 167.109406 C 24.504555 167.154205 24.482147 167.199036 24.456942 167.243835 C 24.3141 167.515518 24.196466 167.798401 24.115244 168.098083 C 24.10684 168.134506 24.101238 168.170914 24.092836 168.207321 C 24.011614 168.523804 23.964001 168.848709 23.964001 169.182007 L 23.964001 233.513565 C 23.964001 235.110016 24.87426 236.566452 26.311069 237.263855 L 80.262878 263.484924 C 80.290886 263.498932 80.321693 263.50174 80.349701 263.515717 C 80.548561 263.608154 80.758621 263.675385 80.974281 263.737 C 81.047104 263.756622 81.117126 263.787415 81.192749 263.80423 C 81.481224 263.865845 81.778114 263.905029 82.083397 263.905029 C 82.391487 263.905029 82.68837 263.868622 82.976852 263.80423 C 83.049675 263.787415 83.119698 263.756622 83.192513 263.737 C 83.40818 263.678192 83.621033 263.608154 83.819893 263.515717 C 83.847908 263.50174 83.878716 263.498932 83.906723 263.484924 L 137.861328 237.266647 C 139.298141 236.569244 140.208405 235.112823 140.208405 233.516357 L 140.208405 169.182007 C 140.208405 168.848709 140.160782 168.521011 140.085159 168.204514 Z M 82.086205 147.59903 L 126.498489 169.182007 L 82.086205 190.764954 L 37.676716 169.182007 L 82.086205 147.59903 Z M 32.304783 175.845093 L 77.91581 198.01062 L 77.91581 253.068756 L 32.304783 230.903229 L 32.304783 175.845093 Z M 86.256592 253.071564 L 86.256592 198.013428 L 131.867615 175.8479 L 131.867615 230.906021 L 86.256592 253.071564 Z"/>
            <path id="path1" fill="white" stroke="white" stroke-width="2" stroke-linecap="round" stroke-linejoin="round" d="M 275.909973 168.204498 C 275.901581 168.168106 275.895966 168.131699 275.887573 168.095276 C 275.806335 167.795593 275.688721 167.509918 275.545868 167.238235 C 275.523468 167.19342 275.501038 167.151413 275.475861 167.106598 C 275.324615 166.843323 275.145355 166.599655 274.940887 166.37558 C 274.907288 166.339188 274.87088 166.302765 274.834473 166.266357 C 274.618805 166.04509 274.380737 165.846237 274.114655 165.675385 C 274.100647 165.666992 274.092255 165.652985 274.078247 165.644577 C 274.05304 165.630569 274.025024 165.624969 274.002625 165.60817 C 273.898987 165.546555 273.798157 165.482132 273.688934 165.428925 L 219.737122 139.210632 C 218.585983 138.650467 217.241623 138.650467 216.090485 139.210632 L 162.138672 165.431717 C 162.029434 165.48494 161.928604 165.549347 161.827774 165.610962 C 161.802567 165.624969 161.774567 165.630569 161.749359 165.647385 C 161.735352 165.655777 161.726944 165.669785 161.712936 165.678192 C 161.449677 165.846237 161.211594 166.047897 160.995941 166.266357 C 160.959518 166.302765 160.923126 166.339188 160.889511 166.378387 C 160.685043 166.602448 160.505798 166.84613 160.357361 167.10939 C 160.332153 167.154205 160.309738 167.19902 160.284546 167.243835 C 160.141693 167.515518 160.024063 167.798401 159.942841 168.098083 C 159.934433 168.134491 159.928833 168.170898 159.920441 168.207321 C 159.844803 168.523804 159.794403 168.848694 159.794403 169.184784 L 159.794403 233.516357 C 159.794403 235.112823 160.704651 236.569244 162.141464 237.266647 L 216.093277 263.487732 C 216.121292 263.50174 216.1521 263.504517 216.180099 263.518524 C 216.378952 263.610962 216.58902 263.678192 216.804672 263.739807 C 216.877502 263.759399 216.947525 263.790222 217.023148 263.807007 C 217.311615 263.868622 217.608505 263.907837 217.913803 263.907837 C 218.221893 263.907837 218.518768 263.87146 218.807251 263.807007 C 218.880081 263.790222 218.950089 263.759399 219.022903 263.739807 C 219.238571 263.681 219.451431 263.610962 219.650284 263.518524 C 219.678299 263.504517 219.709106 263.50174 219.737122 263.487732 L 273.688934 237.266647 C 275.125763 236.569244 276.036011 235.112823 276.036011 233.516357 L 276.036011 169.181992 C 276.036011 168.848694 275.988403 168.520996 275.909973 168.204498 Z M 217.913803 147.59903 L 262.326111 169.181992 L 217.913803 190.764954 L 173.501511 169.181992 L 217.913803 147.59903 Z M 168.13237 175.845093 L 213.743408 198.01062 L 213.743408 253.068756 L 168.13237 230.903229 L 168.13237 175.845093 Z M 222.084183 253.071564 L 222.084183 198.013428 L 267.695221 175.8479 L 267.695221 230.906021 L 222.084183 253.071564 Z"/>
            <path id="path2" fill="white" stroke="white" stroke-width="2" stroke-linecap="round" stroke-linejoin="round" d="M 207.998962 53.506149 C 207.99057 53.469742 207.98497 53.433334 207.976547 53.396927 C 207.895325 53.097229 207.777695 52.811554 207.634872 52.539871 C 207.612457 52.495071 207.590042 52.453049 207.56485 52.408234 C 207.413605 52.144958 207.234344 51.901291 207.029892 51.677231 C 206.996277 51.640823 206.959869 51.604401 206.923447 51.567993 C 206.707809 51.346741 206.469742 51.147873 206.203659 50.977036 C 206.189636 50.968628 206.181244 50.95462 206.167252 50.946228 C 206.142029 50.93222 206.114044 50.92662 206.091629 50.909805 C 205.987991 50.84819 205.887177 50.783783 205.777939 50.73056 L 151.823318 24.515076 C 150.672195 23.954926 149.327805 23.954926 148.176666 24.515076 L 94.224869 50.733353 C 94.115639 50.786575 94.014809 50.850998 93.913979 50.912613 C 93.888771 50.92662 93.860764 50.93222 93.835556 50.94902 C 93.821548 50.957428 93.813148 50.97142 93.799149 50.979828 C 93.535873 51.147873 93.297798 51.349533 93.082138 51.567993 C 93.045738 51.604401 93.009323 51.640823 92.975708 51.680023 C 92.771255 51.904099 92.592003 52.147766 92.443565 52.411041 C 92.41835 52.455856 92.39595 52.500671 92.370735 52.545471 C 92.227898 52.817154 92.11026 53.100037 92.029045 53.399719 C 92.020638 53.436127 92.015038 53.472549 92.006638 53.508957 C 91.931015 53.825439 91.8806 54.15033 91.8806 54.486435 L 91.8806 118.818008 C 91.8806 120.414459 92.790855 121.87088 94.227669 122.568283 L 148.179474 148.789368 C 148.207489 148.803375 148.238281 148.806183 148.266296 148.820175 C 148.465164 148.912613 148.675217 148.979828 148.890884 149.041443 C 148.963699 149.06105 149.033722 149.091858 149.109344 149.108673 C 149.397827 149.170288 149.694702 149.209488 150 149.209488 C 150.30809 149.209488 150.604965 149.17308 150.893463 149.108673 C 150.966278 149.091858 151.036285 149.06105 151.109116 149.041443 C 151.324783 148.98262 151.537643 148.912613 151.736496 148.820175 C 151.764511 148.806183 151.795303 148.803375 151.823318 148.789368 L 205.775131 122.568283 C 207.211945 121.87088 208.122192 120.414459 208.122192 118.818008 L 208.122192 54.483627 C 208.122192 54.15033 208.074585 53.822647 207.998962 53.506149 Z M 150 32.900665 L 194.412277 54.483627 L 150 76.066605 L 105.587715 54.483627 L 150 32.900665 Z M 100.218582 61.149536 L 145.829605 83.315063 L 145.829605 138.373199 L 100.218582 116.207657 L 100.218582 61.149536 Z M 154.17038 138.373199 L 154.17038 83.315063 L 199.781418 61.149536 L 199.781418 116.207657 L 154.17038 138.373199 Z"/>
        </g>
    </g>
</svg>
